<svg width="19" height="19" viewBox="0 0 19 19" fill="none" xmlns="http://www.w3.org/2000/svg">
<path d="M9.25 18.4941C6.95 18.4941 4.94583 17.7316 3.2375 16.2066C1.52917 14.6816 0.55 12.7775 0.3 10.4941H2.35C2.58333 12.2275 3.35417 13.6608 4.6625 14.7941C5.97083 15.9275 7.5 16.4941 9.25 16.4941C11.2 16.4941 12.8542 15.815 14.2125 14.4566C15.5708 13.0983 16.25 11.4441 16.25 9.49414C16.25 7.54414 15.5708 5.88997 14.2125 4.53164C12.8542 3.17331 11.2 2.49414 9.25 2.49414C8.1 2.49414 7.025 2.76081 6.025 3.29414C5.025 3.82747 4.18333 4.56081 3.5 5.49414H6.25V7.49414H0.25V1.49414H2.25V3.84414C3.1 2.77747 4.1375 1.95247 5.3625 1.36914C6.5875 0.785807 7.88333 0.494141 9.25 0.494141C10.5 0.494141 11.6708 0.731641 12.7625 1.20664C13.8542 1.68164 14.8042 2.32331 15.6125 3.13164C16.4208 3.93997 17.0625 4.88997 17.5375 5.98164C18.0125 7.07331 18.25 8.24414 18.25 9.49414C18.25 10.7441 18.0125 11.915 17.5375 13.0066C17.0625 14.0983 16.4208 15.0483 15.6125 15.8566C14.8042 16.665 13.8542 17.3066 12.7625 17.7816C11.6708 18.2566 10.5 18.4941 9.25 18.4941ZM12.05 13.6941L8.25 9.89414V4.49414H10.25V9.09414L13.45 12.2941L12.05 13.6941Z" fill="#B6B6B6"/>
</svg>
